<svg xmlns="http://www.w3.org/2000/svg" viewBox="-8 -8 256 256" fill="none" stroke="#000000" stroke-linecap="round" stroke-linejoin="round" class="feather feather-github" id="Github--Streamline-Feather" height="256" width="256"><desc>Github Streamline Icon: https://streamlinehq.com</desc><path d="M90 190c-50 15 -50 -25 -70 -30m140 60v-38.7a33.7 33.7 0 0 0 -9.399999999999999 -26.099999999999998c31.400000000000002 -3.5 64.4 -15.4 64.4 -70A54.400000000000006 54.400000000000006 0 0 0 200 47.699999999999996 50.7 50.7 0 0 0 199.1 10S187.3 6.5 160 24.8a133.8 133.8 0 0 0 -70 0C62.699999999999996 6.5 50.9 10 50.9 10A50.7 50.7 0 0 0 50 47.699999999999996a54.400000000000006 54.400000000000006 0 0 0 -15 37.8c0 54.2 33 66.10000000000001 64.4 70A33.7 33.7 0 0 0 90 181.29999999999998V220" stroke-width="16"></path></svg>