<svg xmlns="http://www.w3.org/2000/svg" fill="none" viewBox="-4 -4 128 128" stroke-linecap="round" stroke-linejoin="round" stroke="#000000" id="Brand-Linkedin--Streamline-Mynaui" height="128" width="128"><desc>Brand Linkedin Streamline Icon: https://streamlinehq.com</desc><path d="M40 81.875V53.75m20 28.125V67.5m0 0v-13.75m0 13.75c0 -6.44 6.109999999999999 -10 12 -10 8 0 8 6.875 8 14.375v10m-40 -43.75v2.5" stroke-width="8"></path><path d="M15 47c0 -11.200000000000001 0 -16.8 2.18 -21.080000000000002a20 20 0 0 1 8.74 -8.74C30.2 15 35.8 15 47 15h26c11.200000000000001 0 16.8 0 21.080000000000002 2.18a20 20 0 0 1 8.74 8.74C105 30.2 105 35.8 105 47v26c0 11.200000000000001 0 16.8 -2.18 21.080000000000002a20 20 0 0 1 -8.74 8.74C89.80000000000001 105 84.2 105 73 105H47c-11.200000000000001 0 -16.8 0 -21.080000000000002 -2.18a20 20 0 0 1 -8.74 -8.74C15 89.80000000000001 15 84.2 15 73z" stroke-width="8"></path></svg>