<svg xmlns="http://www.w3.org/2000/svg" fill="none" viewBox="-8 -8 256 256" stroke-linecap="round" stroke-linejoin="round" stroke="#000000" id="Brand-Linkedin--Streamline-Mynaui" height="256" width="256"><desc>Brand Linkedin Streamline Icon: https://streamlinehq.com</desc><path d="M80 163.75V107.5m40 56.25V135m0 0v-27.5m0 27.5c0 -12.88 12.219999999999999 -20 24 -20 16 0 16 13.75 16 28.75v20m-80 -87.5v5" stroke-width="16"></path><path d="M30 94c0 -22.400000000000002 0 -33.6 4.36 -42.160000000000004a40 40 0 0 1 17.48 -17.48C60.4 30 71.6 30 94 30h52c22.400000000000002 0 33.6 0 42.160000000000004 4.36a40 40 0 0 1 17.48 17.48C210 60.4 210 71.6 210 94v52c0 22.400000000000002 0 33.6 -4.36 42.160000000000004a40 40 0 0 1 -17.48 17.48C179.60000000000002 210 168.4 210 146 210H94c-22.400000000000002 0 -33.6 0 -42.160000000000004 -4.36a40 40 0 0 1 -17.48 -17.48C30 179.60000000000002 30 168.4 30 146z" stroke-width="16"></path></svg>