<svg xmlns="http://www.w3.org/2000/svg" fill="none" viewBox="-8 -8 256 256" id="Read-Email-At-1--Streamline-Ultimate" height="256" width="256"><desc>Read Email At 1 Streamline Icon: https://streamlinehq.com</desc><path stroke="#000000" stroke-linecap="round" stroke-linejoin="round" d="M7.5 120c0 29.836999999999996 11.852599999999999 58.452 32.9505 79.55C61.5483 220.647 90.16310000000001 232.5 120 232.5c29.836999999999996 0 58.452 -11.853 79.55 -32.95 21.097 -21.098 32.95 -49.713 32.95 -79.55 0 -29.8369 -11.853 -58.4517 -32.95 -79.5495C178.452 19.3526 149.83700000000002 7.5 120 7.5c-29.8369 0 -58.4517 11.852599999999999 -79.5495 32.9505C19.3526 61.5483 7.5 90.16310000000001 7.5 120Z" stroke-width="16"></path><path stroke="#000000" stroke-linecap="round" stroke-linejoin="round" d="M150 180.47899999999998c-13.149 6.526 -28.067 8.587 -42.492999999999995 5.873 -14.425699999999999 -2.7139999999999995 -27.574 -10.056000000000001 -37.4525 -20.914 -9.878599999999999 -10.858 -15.949 -24.639000000000003 -17.2916 -39.257 -1.3426 -14.617 2.1158 -29.2744 9.8511 -41.75 7.7354 -12.4756 19.3262 -22.09 33.0165 -27.386699999999998 13.6905 -5.2966 28.7335 -5.9868 42.8515 -1.966 14.117999999999999 4.0209 26.54 12.5336 35.385 24.2485 8.846 11.7149 13.631 25.9932 13.633 40.6722" stroke-width="16"></path><path stroke="#000000" stroke-linecap="round" stroke-linejoin="round" d="M90 120c0 7.9559999999999995 3.1607000000000003 15.587 8.7868 21.213C104.413 146.839 112.044 150 120 150c7.9559999999999995 0 15.587 -3.161 21.213 -8.787C146.839 135.587 150 127.956 150 120c0 -7.9559999999999995 -3.161 -15.587 -8.787 -21.2132C135.587 93.16069999999999 127.956 90 120 90c-7.9559999999999995 0 -15.587 3.1607000000000003 -21.2132 8.7868C93.16069999999999 104.413 90 112.044 90 120Z" stroke-width="16"></path><path stroke="#000000" stroke-linecap="round" stroke-linejoin="round" d="M150 120v11.25c0 4.973 1.975 9.741999999999999 5.492 13.258000000000001 3.516 3.5170000000000003 8.285 5.492 13.258000000000001 5.492 4.973 0 9.741999999999999 -1.975 13.258000000000001 -5.492 3.5170000000000003 -3.516 5.492 -8.285 5.492 -13.258000000000001V120" stroke-width="16"></path></svg>